<?xml version="1.0" encoding="UTF-8" standalone="no"?>
<!-- Created with Inkscape (http://www.inkscape.org/) -->

<svg
   xmlns:dc="http://purl.org/dc/elements/1.1/"
   xmlns:cc="http://creativecommons.org/ns#"
   xmlns:rdf="http://www.w3.org/1999/02/22-rdf-syntax-ns#"
   xmlns:svg="http://www.w3.org/2000/svg"
   xmlns="http://www.w3.org/2000/svg"
   xmlns:sodipodi="http://sodipodi.sourceforge.net/DTD/sodipodi-0.dtd"
   xmlns:inkscape="http://www.inkscape.org/namespaces/inkscape"
   width="210mm"
   height="297mm"
   viewBox="0 0 210 297"
   version="1.1"
   id="svg8"
   inkscape:version="0.92.3 (2405546, 2018-03-11)"
   sodipodi:docname="drawing.svg">
  <defs
     id="defs2" />
  <sodipodi:namedview
     id="base"
     pagecolor="#ffffff"
     bordercolor="#666666"
     borderopacity="1.0"
     inkscape:pageopacity="0.0"
     inkscape:pageshadow="2"
     inkscape:zoom="0.98994949"
     inkscape:cx="-165.8645"
     inkscape:cy="766.79324"
     inkscape:document-units="mm"
     inkscape:current-layer="layer1"
     showgrid="false"
     inkscape:window-width="1280"
     inkscape:window-height="996"
     inkscape:window-x="0"
     inkscape:window-y="0"
     inkscape:window-maximized="1" />
  <metadata
     id="metadata5">
    <rdf:RDF>
      <cc:Work
         rdf:about="">
        <dc:format>image/svg+xml</dc:format>
        <dc:type
           rdf:resource="http://purl.org/dc/dcmitype/StillImage" />
        <dc:title></dc:title>
      </cc:Work>
    </rdf:RDF>
  </metadata>
  <g
     inkscape:label="Layer 1"
     inkscape:groupmode="layer"
     id="layer1">
    <path
       id="path3713"
       d="m 116.42082,102.3028 h -5.08565 v -5.227994 c 0,-0.641521 -0.50609,-1.161779 -1.13014,-1.161779 h -1.13015 c -0.62405,0 -1.13014,0.520258 -1.13014,1.161779 v 5.227994 h -5.08566 c -0.62405,0 -1.13014,0.52026 -1.13014,1.16178 v 1.16177 c 0,0.64152 0.50609,1.16178 1.13014,1.16178 h 5.08566 v 5.22799 c 0,0.64152 0.50609,1.16178 1.13014,1.16178 h 1.13015 c 0.62405,0 1.13014,-0.52026 1.13014,-1.16178 v -5.22799 h 5.08565 c 0.62406,0 1.13015,-0.52026 1.13015,-1.16178 v -1.16177 c 0,-0.64152 -0.50609,-1.16178 -1.13015,-1.16178 z"
       inkscape:connector-curvature="0"
       style="fill:#ffffff;stroke-width:0.03580786" />
    <path
       id="path3735"
       d="m 176.81153,170.77222 c 1.74625,0 3.175,1.42875 3.175,3.175 v 10.58333 c 0,1.74625 -1.42875,3.175 -3.175,3.175 H 47.694866 c -1.74625,0 -3.175,-1.42875 -3.175,-3.175 V 89.280559 c 0,-1.74625 1.42875,-3.175 3.175,-3.175 h 10.583333 c 1.74625,0 3.175,1.42875 3.175,3.175 V 170.77222 Z M 143.13007,111.37326 120.71986,126.32222 98.150913,96.239099 c -1.34938,-1.79917 -4.10105,-1.66688 -5.26521,0.26458 L 69.919866,134.78889 v 27.51667 H 171.51986 l -23.78604,-49.68875 c -0.84667,-1.7198 -3.01625,-2.30188 -4.60375,-1.24355 z"
       inkscape:connector-curvature="0"
       style="fill:currentColor;stroke-width:0.26458332" />
    <path
       id="path3746"
       d="M 47.813481,66.012699 H 33.080483 V 51.709236 c 0,-1.755162 -1.466135,-3.178562 -3.273996,-3.178562 H 26.53249 c -1.807861,0 -3.274011,1.4234 -3.274011,3.178562 V 66.012699 H 8.5254807 c -1.8078762,0 -3.2740117,1.423384 -3.2740117,3.178532 v 3.178548 c 0,1.755177 1.4661355,3.178554 3.2740117,3.178554 H 23.258479 v 14.303462 c 0,1.755149 1.46615,3.178548 3.274011,3.178548 h 3.273997 c 1.807861,0 3.273996,-1.423399 3.273996,-3.178548 V 75.548333 h 14.732998 c 1.807862,0 3.274012,-1.423377 3.274012,-3.178554 v -3.178548 c 0,-1.755148 -1.46615,-3.178532 -3.274012,-3.178532 z"
       inkscape:connector-curvature="0"
       style="fill:#000000;stroke-width:0.10081004" />
  </g>
</svg>
